# xmcd
#
# Track frame offsets:
#	150
#	19234
#	35170
#	49493
#	65125
#	86390
#	101152
#	113158
#	122466
#	136315
#	152654
#
# Disc length: 2240 seconds
#
# Revision: 0
# Processed by: cddbd v1.5.2PL0 Copyright (c) Steve Scherf et al.
# Submitted via: EasyCDDAExtractor 2010.6.0.0
#
DISCID=9808be0b
DTITLE=Abbie Gardner - HOPE
DYEAR=1900
DGENRE=Country
TTITLE0=Break It Slow
TTITLE1=Liar
TTITLE2=Comes Love
TTITLE3=It Can't Be Good For You
TTITLE4=Hope
TTITLE5=It's You
TTITLE6=Bang, Bang
TTITLE7=Do It
TTITLE8=Nellie
TTITLE9=Walkin' Cane
TTITLE10=Too Soon
EXTD=
EXTT0=
EXTT1=
EXTT2=
EXTT3=
EXTT4=
EXTT5=
EXTT6=
EXTT7=
EXTT8=
EXTT9=
EXTT10=
PLAYORDER=
